<mxfile host="Electron" modified="2024-03-27T00:40:57.094Z" agent="Mozilla/5.0 (Windows NT 10.0; Win64; x64) AppleWebKit/537.36 (KHTML, like Gecko) draw.io/21.6.8 Chrome/114.0.5735.289 Electron/25.5.0 Safari/537.36" etag="M9wVO_v7kOKC1y2lGDqy" version="21.6.8" type="device">
  <diagram name="Page-1" id="-iaI0_rcVFdvOOcmjyhH">
    <mxGraphModel dx="1673" dy="1630" grid="1" gridSize="10" guides="1" tooltips="1" connect="1" arrows="1" fold="1" page="1" pageScale="1" pageWidth="850" pageHeight="1100" math="0" shadow="0">
      <root>
        <mxCell id="0" />
        <mxCell id="1" parent="0" />
        <mxCell id="lVgYKHHcY3sC3g97FkwV-12" style="edgeStyle=orthogonalEdgeStyle;rounded=0;orthogonalLoop=1;jettySize=auto;html=1;entryX=0;entryY=0.5;entryDx=0;entryDy=0;" parent="1" source="lVgYKHHcY3sC3g97FkwV-1" target="lVgYKHHcY3sC3g97FkwV-2" edge="1">
          <mxGeometry relative="1" as="geometry">
            <Array as="points">
              <mxPoint x="-240" y="420" />
              <mxPoint x="-240" y="130" />
            </Array>
          </mxGeometry>
        </mxCell>
        <mxCell id="lVgYKHHcY3sC3g97FkwV-19" style="edgeStyle=orthogonalEdgeStyle;rounded=0;orthogonalLoop=1;jettySize=auto;html=1;exitX=0.5;exitY=0;exitDx=0;exitDy=0;" parent="1" source="lVgYKHHcY3sC3g97FkwV-1" edge="1">
          <mxGeometry relative="1" as="geometry">
            <mxPoint x="-120" y="400" as="sourcePoint" />
            <mxPoint x="357" y="268" as="targetPoint" />
            <Array as="points">
              <mxPoint x="-90" y="270" />
              <mxPoint x="350" y="270" />
              <mxPoint x="350" y="268" />
            </Array>
          </mxGeometry>
        </mxCell>
        <mxCell id="lVgYKHHcY3sC3g97FkwV-39" style="edgeStyle=orthogonalEdgeStyle;rounded=0;orthogonalLoop=1;jettySize=auto;html=1;entryX=0.188;entryY=0.125;entryDx=0;entryDy=0;entryPerimeter=0;" parent="1" source="lVgYKHHcY3sC3g97FkwV-1" target="lVgYKHHcY3sC3g97FkwV-5" edge="1">
          <mxGeometry relative="1" as="geometry">
            <Array as="points">
              <mxPoint x="120" y="390" />
              <mxPoint x="120" y="320" />
            </Array>
          </mxGeometry>
        </mxCell>
        <mxCell id="TnAPFE_Qto44UNZe6oUe-14" style="edgeStyle=orthogonalEdgeStyle;rounded=0;orthogonalLoop=1;jettySize=auto;html=1;exitX=0.99;exitY=0.775;exitDx=0;exitDy=0;exitPerimeter=0;entryX=0.179;entryY=0.089;entryDx=0;entryDy=0;entryPerimeter=0;" parent="1" source="lVgYKHHcY3sC3g97FkwV-1" target="lVgYKHHcY3sC3g97FkwV-7" edge="1">
          <mxGeometry relative="1" as="geometry">
            <mxPoint x="90.00000000000023" y="680" as="targetPoint" />
            <mxPoint x="-20" y="440" as="sourcePoint" />
            <Array as="points">
              <mxPoint x="-31" y="440" />
              <mxPoint x="220" y="440" />
              <mxPoint x="220" y="699" />
              <mxPoint x="330" y="699" />
              <mxPoint x="330" y="587" />
            </Array>
          </mxGeometry>
        </mxCell>
        <mxCell id="TnAPFE_Qto44UNZe6oUe-18" style="edgeStyle=orthogonalEdgeStyle;rounded=0;orthogonalLoop=1;jettySize=auto;html=1;entryX=0;entryY=0.5;entryDx=0;entryDy=0;exitX=0.5;exitY=1;exitDx=0;exitDy=0;" parent="1" source="lVgYKHHcY3sC3g97FkwV-1" target="lVgYKHHcY3sC3g97FkwV-10" edge="1">
          <mxGeometry relative="1" as="geometry">
            <mxPoint x="199.99999999999977" y="860" as="targetPoint" />
            <Array as="points">
              <mxPoint x="-170" y="450" />
              <mxPoint x="-170" y="989" />
            </Array>
          </mxGeometry>
        </mxCell>
        <mxCell id="TnAPFE_Qto44UNZe6oUe-23" style="edgeStyle=orthogonalEdgeStyle;rounded=0;orthogonalLoop=1;jettySize=auto;html=1;exitX=0.75;exitY=1;exitDx=0;exitDy=0;entryX=-0.016;entryY=0.594;entryDx=0;entryDy=0;entryPerimeter=0;" parent="1" source="lVgYKHHcY3sC3g97FkwV-1" target="lVgYKHHcY3sC3g97FkwV-8" edge="1">
          <mxGeometry relative="1" as="geometry">
            <mxPoint x="340" y="822.3529411764706" as="targetPoint" />
            <Array as="points">
              <mxPoint x="230" y="450" />
              <mxPoint x="230" y="730" />
              <mxPoint x="345" y="730" />
            </Array>
          </mxGeometry>
        </mxCell>
        <mxCell id="CSQUxUXz5eu-vYHftbsT-2" style="edgeStyle=orthogonalEdgeStyle;rounded=0;orthogonalLoop=1;jettySize=auto;html=1;exitX=0.75;exitY=1;exitDx=0;exitDy=0;entryX=0;entryY=0.358;entryDx=0;entryDy=0;entryPerimeter=0;" edge="1" parent="1" source="lVgYKHHcY3sC3g97FkwV-1" target="lVgYKHHcY3sC3g97FkwV-9">
          <mxGeometry relative="1" as="geometry">
            <Array as="points">
              <mxPoint x="240" y="450" />
              <mxPoint x="240" y="804" />
            </Array>
          </mxGeometry>
        </mxCell>
        <mxCell id="lVgYKHHcY3sC3g97FkwV-1" value="User" style="rounded=0;whiteSpace=wrap;html=1;" parent="1" vertex="1">
          <mxGeometry x="-150" y="390" width="120" height="60" as="geometry" />
        </mxCell>
        <mxCell id="lVgYKHHcY3sC3g97FkwV-16" style="edgeStyle=orthogonalEdgeStyle;rounded=0;orthogonalLoop=1;jettySize=auto;html=1;entryX=0;entryY=0.5;entryDx=0;entryDy=0;" parent="1" source="lVgYKHHcY3sC3g97FkwV-2" target="lVgYKHHcY3sC3g97FkwV-14" edge="1">
          <mxGeometry relative="1" as="geometry" />
        </mxCell>
        <mxCell id="lVgYKHHcY3sC3g97FkwV-17" style="edgeStyle=orthogonalEdgeStyle;rounded=0;orthogonalLoop=1;jettySize=auto;html=1;entryX=0;entryY=0.5;entryDx=0;entryDy=0;" parent="1" source="lVgYKHHcY3sC3g97FkwV-2" target="lVgYKHHcY3sC3g97FkwV-15" edge="1">
          <mxGeometry relative="1" as="geometry" />
        </mxCell>
        <mxCell id="lVgYKHHcY3sC3g97FkwV-18" style="edgeStyle=orthogonalEdgeStyle;rounded=0;orthogonalLoop=1;jettySize=auto;html=1;exitX=0.5;exitY=1;exitDx=0;exitDy=0;" parent="1" source="lVgYKHHcY3sC3g97FkwV-2" target="lVgYKHHcY3sC3g97FkwV-4" edge="1">
          <mxGeometry relative="1" as="geometry" />
        </mxCell>
        <mxCell id="lVgYKHHcY3sC3g97FkwV-2" value="&lt;div&gt;&lt;br&gt;&lt;/div&gt;&lt;div&gt;1&lt;/div&gt;test-register.php&lt;div&gt;&lt;br&gt;&lt;/div&gt;" style="ellipse;whiteSpace=wrap;html=1;aspect=fixed;" parent="1" vertex="1">
          <mxGeometry x="345" y="90" width="80" height="80" as="geometry" />
        </mxCell>
        <mxCell id="lVgYKHHcY3sC3g97FkwV-22" style="edgeStyle=orthogonalEdgeStyle;rounded=0;orthogonalLoop=1;jettySize=auto;html=1;" parent="1" source="lVgYKHHcY3sC3g97FkwV-4" target="lVgYKHHcY3sC3g97FkwV-14" edge="1">
          <mxGeometry relative="1" as="geometry">
            <Array as="points">
              <mxPoint x="520" y="240" />
              <mxPoint x="520" />
              <mxPoint x="905" />
            </Array>
          </mxGeometry>
        </mxCell>
        <mxCell id="lVgYKHHcY3sC3g97FkwV-36" style="edgeStyle=orthogonalEdgeStyle;rounded=0;orthogonalLoop=1;jettySize=auto;html=1;entryX=0.5;entryY=0;entryDx=0;entryDy=0;" parent="1" source="lVgYKHHcY3sC3g97FkwV-4" target="lVgYKHHcY3sC3g97FkwV-5" edge="1">
          <mxGeometry relative="1" as="geometry" />
        </mxCell>
        <mxCell id="lVgYKHHcY3sC3g97FkwV-4" value="&lt;div&gt;2&lt;/div&gt;&lt;div&gt;test-signup.php&lt;div style=&quot;border-color: var(--border-color);&quot;&gt;&lt;br style=&quot;border-color: var(--border-color);&quot;&gt;&lt;/div&gt;&lt;/div&gt;" style="ellipse;whiteSpace=wrap;html=1;aspect=fixed;" parent="1" vertex="1">
          <mxGeometry x="345" y="200" width="80" height="80" as="geometry" />
        </mxCell>
        <mxCell id="lVgYKHHcY3sC3g97FkwV-48" style="edgeStyle=orthogonalEdgeStyle;rounded=0;orthogonalLoop=1;jettySize=auto;html=1;entryX=0;entryY=0.5;entryDx=0;entryDy=0;exitX=0.729;exitY=0.061;exitDx=0;exitDy=0;exitPerimeter=0;" parent="1" source="lVgYKHHcY3sC3g97FkwV-5" target="lVgYKHHcY3sC3g97FkwV-46" edge="1">
          <mxGeometry relative="1" as="geometry">
            <Array as="points">
              <mxPoint x="403" y="310" />
            </Array>
          </mxGeometry>
        </mxCell>
        <mxCell id="lVgYKHHcY3sC3g97FkwV-5" value="&lt;div&gt;3&lt;/div&gt;test-display-post.php" style="ellipse;whiteSpace=wrap;html=1;aspect=fixed;" parent="1" vertex="1">
          <mxGeometry x="345" y="310" width="80" height="80" as="geometry" />
        </mxCell>
        <mxCell id="lVgYKHHcY3sC3g97FkwV-72" style="edgeStyle=orthogonalEdgeStyle;rounded=0;orthogonalLoop=1;jettySize=auto;html=1;entryX=0;entryY=0.5;entryDx=0;entryDy=0;" parent="1" source="lVgYKHHcY3sC3g97FkwV-7" target="lVgYKHHcY3sC3g97FkwV-71" edge="1">
          <mxGeometry relative="1" as="geometry" />
        </mxCell>
        <mxCell id="lVgYKHHcY3sC3g97FkwV-74" value="Stores Comments&lt;br&gt;" style="edgeLabel;html=1;align=center;verticalAlign=middle;resizable=0;points=[];" parent="lVgYKHHcY3sC3g97FkwV-72" vertex="1" connectable="0">
          <mxGeometry x="-0.2931" relative="1" as="geometry">
            <mxPoint x="11" y="-9" as="offset" />
          </mxGeometry>
        </mxCell>
        <mxCell id="lVgYKHHcY3sC3g97FkwV-7" value="&lt;div&gt;6&lt;/div&gt;&lt;div&gt;test-display-pest.php&lt;div style=&quot;border-color: var(--border-color);&quot;&gt;&lt;br style=&quot;border-color: var(--border-color);&quot;&gt;&lt;/div&gt;&lt;/div&gt;" style="ellipse;whiteSpace=wrap;html=1;aspect=fixed;" parent="1" vertex="1">
          <mxGeometry x="346" y="580" width="80" height="80" as="geometry" />
        </mxCell>
        <mxCell id="lVgYKHHcY3sC3g97FkwV-79" style="edgeStyle=orthogonalEdgeStyle;rounded=0;orthogonalLoop=1;jettySize=auto;html=1;entryX=0;entryY=0.5;entryDx=0;entryDy=0;" parent="1" source="lVgYKHHcY3sC3g97FkwV-8" target="lVgYKHHcY3sC3g97FkwV-78" edge="1">
          <mxGeometry relative="1" as="geometry">
            <mxPoint x="880" y="730" as="targetPoint" />
          </mxGeometry>
        </mxCell>
        <mxCell id="lVgYKHHcY3sC3g97FkwV-80" value="Stores Follow" style="edgeLabel;html=1;align=center;verticalAlign=middle;resizable=0;points=[];" parent="lVgYKHHcY3sC3g97FkwV-79" vertex="1" connectable="0">
          <mxGeometry x="-0.253" y="-2" relative="1" as="geometry">
            <mxPoint y="-12" as="offset" />
          </mxGeometry>
        </mxCell>
        <mxCell id="lVgYKHHcY3sC3g97FkwV-8" value="8&lt;br&gt;test-display.php&lt;div style=&quot;border-color: var(--border-color);&quot;&gt;&lt;br style=&quot;border-color: var(--border-color);&quot;&gt;&lt;/div&gt;" style="ellipse;whiteSpace=wrap;html=1;aspect=fixed;" parent="1" vertex="1">
          <mxGeometry x="346" y="689" width="80" height="80" as="geometry" />
        </mxCell>
        <mxCell id="lVgYKHHcY3sC3g97FkwV-97" style="edgeStyle=orthogonalEdgeStyle;rounded=0;orthogonalLoop=1;jettySize=auto;html=1;entryX=1;entryY=0.5;entryDx=0;entryDy=0;" parent="1" source="lVgYKHHcY3sC3g97FkwV-9" target="lVgYKHHcY3sC3g97FkwV-15" edge="1">
          <mxGeometry relative="1" as="geometry">
            <Array as="points">
              <mxPoint x="1040" y="899" />
              <mxPoint x="1040" y="130" />
            </Array>
          </mxGeometry>
        </mxCell>
        <mxCell id="lVgYKHHcY3sC3g97FkwV-9" value="9&lt;br&gt;test-account.php" style="ellipse;whiteSpace=wrap;html=1;aspect=fixed;" parent="1" vertex="1">
          <mxGeometry x="346" y="775" width="80" height="80" as="geometry" />
        </mxCell>
        <mxCell id="lVgYKHHcY3sC3g97FkwV-104" style="edgeStyle=orthogonalEdgeStyle;rounded=0;orthogonalLoop=1;jettySize=auto;html=1;entryX=0.015;entryY=0.203;entryDx=0;entryDy=0;entryPerimeter=0;" parent="1" source="lVgYKHHcY3sC3g97FkwV-10" target="lVgYKHHcY3sC3g97FkwV-100" edge="1">
          <mxGeometry relative="1" as="geometry">
            <Array as="points" />
          </mxGeometry>
        </mxCell>
        <mxCell id="TnAPFE_Qto44UNZe6oUe-20" style="edgeStyle=orthogonalEdgeStyle;rounded=0;orthogonalLoop=1;jettySize=auto;html=1;exitX=0;exitY=1;exitDx=0;exitDy=0;entryX=0.5;entryY=1;entryDx=0;entryDy=0;" parent="1" source="lVgYKHHcY3sC3g97FkwV-10" target="lVgYKHHcY3sC3g97FkwV-1" edge="1">
          <mxGeometry relative="1" as="geometry">
            <Array as="points">
              <mxPoint x="-150" y="1017" />
              <mxPoint x="-150" y="450" />
            </Array>
          </mxGeometry>
        </mxCell>
        <mxCell id="lVgYKHHcY3sC3g97FkwV-10" value="&lt;div&gt;10&lt;/div&gt;&lt;div&gt;test-messaging.php&lt;/div&gt;" style="ellipse;whiteSpace=wrap;html=1;aspect=fixed;" parent="1" vertex="1">
          <mxGeometry x="310" y="949" width="116" height="116" as="geometry" />
        </mxCell>
        <mxCell id="lVgYKHHcY3sC3g97FkwV-13" style="edgeStyle=orthogonalEdgeStyle;rounded=0;orthogonalLoop=1;jettySize=auto;html=1;entryX=0.5;entryY=0;entryDx=0;entryDy=0;" parent="1" source="lVgYKHHcY3sC3g97FkwV-11" target="lVgYKHHcY3sC3g97FkwV-2" edge="1">
          <mxGeometry relative="1" as="geometry">
            <Array as="points">
              <mxPoint x="-270" y="630" />
              <mxPoint x="-270" y="70" />
              <mxPoint x="385" y="70" />
            </Array>
          </mxGeometry>
        </mxCell>
        <mxCell id="lVgYKHHcY3sC3g97FkwV-25" value="Provides username,password,email,bio and profile picture" style="edgeLabel;html=1;align=center;verticalAlign=middle;resizable=0;points=[];" parent="lVgYKHHcY3sC3g97FkwV-13" vertex="1" connectable="0">
          <mxGeometry x="0.496" y="2" relative="1" as="geometry">
            <mxPoint x="-34" y="-8" as="offset" />
          </mxGeometry>
        </mxCell>
        <mxCell id="lVgYKHHcY3sC3g97FkwV-20" style="edgeStyle=orthogonalEdgeStyle;rounded=0;orthogonalLoop=1;jettySize=auto;html=1;entryX=0;entryY=0;entryDx=0;entryDy=0;exitX=0;exitY=0.5;exitDx=0;exitDy=0;" parent="1" source="lVgYKHHcY3sC3g97FkwV-11" target="lVgYKHHcY3sC3g97FkwV-4" edge="1">
          <mxGeometry relative="1" as="geometry">
            <Array as="points">
              <mxPoint x="-150" y="610" />
              <mxPoint x="-210" y="610" />
              <mxPoint x="-210" y="212" />
            </Array>
          </mxGeometry>
        </mxCell>
        <mxCell id="lVgYKHHcY3sC3g97FkwV-30" value="provides username and password&lt;br&gt;" style="edgeLabel;html=1;align=center;verticalAlign=middle;resizable=0;points=[];" parent="lVgYKHHcY3sC3g97FkwV-20" vertex="1" connectable="0">
          <mxGeometry x="0.4001" y="3" relative="1" as="geometry">
            <mxPoint x="23" y="-9" as="offset" />
          </mxGeometry>
        </mxCell>
        <mxCell id="TnAPFE_Qto44UNZe6oUe-3" style="edgeStyle=orthogonalEdgeStyle;rounded=0;orthogonalLoop=1;jettySize=auto;html=1;entryX=0.086;entryY=0.249;entryDx=0;entryDy=0;entryPerimeter=0;" parent="1" target="lVgYKHHcY3sC3g97FkwV-5" edge="1">
          <mxGeometry relative="1" as="geometry">
            <mxPoint x="-60" y="600.0000000000002" as="sourcePoint" />
            <mxPoint x="319.4000000000001" y="327.75999999999976" as="targetPoint" />
            <Array as="points">
              <mxPoint x="130" y="600" />
              <mxPoint x="130" y="330" />
            </Array>
          </mxGeometry>
        </mxCell>
        <mxCell id="lVgYKHHcY3sC3g97FkwV-11" value="Modderator" style="rounded=0;whiteSpace=wrap;html=1;" parent="1" vertex="1">
          <mxGeometry x="-150" y="600" width="120" height="60" as="geometry" />
        </mxCell>
        <mxCell id="lVgYKHHcY3sC3g97FkwV-23" style="edgeStyle=orthogonalEdgeStyle;rounded=0;orthogonalLoop=1;jettySize=auto;html=1;entryX=0.975;entryY=0.325;entryDx=0;entryDy=0;entryPerimeter=0;" parent="1" source="lVgYKHHcY3sC3g97FkwV-14" target="lVgYKHHcY3sC3g97FkwV-4" edge="1">
          <mxGeometry relative="1" as="geometry">
            <Array as="points">
              <mxPoint x="920" y="-20" />
              <mxPoint x="490" y="-20" />
              <mxPoint x="490" y="226" />
            </Array>
          </mxGeometry>
        </mxCell>
        <mxCell id="lVgYKHHcY3sC3g97FkwV-14" value="MySQL&lt;br&gt;Login&lt;br&gt;Table" style="html=1;dashed=0;whiteSpace=wrap;shape=partialRectangle;right=0;left=0;" parent="1" vertex="1">
          <mxGeometry x="860" y="40" width="100" height="40" as="geometry" />
        </mxCell>
        <mxCell id="lVgYKHHcY3sC3g97FkwV-15" value="MySQL&lt;br&gt;Accounts&lt;br&gt;Table" style="html=1;dashed=0;whiteSpace=wrap;shape=partialRectangle;right=0;left=0;" parent="1" vertex="1">
          <mxGeometry x="870" y="110" width="100" height="40" as="geometry" />
        </mxCell>
        <mxCell id="lVgYKHHcY3sC3g97FkwV-26" value="Provides username,password,email,bio and profile picture" style="edgeLabel;html=1;align=center;verticalAlign=middle;resizable=0;points=[];" parent="1" vertex="1" connectable="0">
          <mxGeometry x="29.999999999999908" y="120" as="geometry" />
        </mxCell>
        <mxCell id="lVgYKHHcY3sC3g97FkwV-28" value="Stores username,password,email,bio and profile picture" style="edgeLabel;html=1;align=center;verticalAlign=middle;resizable=0;points=[];" parent="1" vertex="1" connectable="0">
          <mxGeometry x="680.0033333333336" y="130" as="geometry">
            <mxPoint x="-7" y="14" as="offset" />
          </mxGeometry>
        </mxCell>
        <mxCell id="lVgYKHHcY3sC3g97FkwV-29" value="Stores username,password&lt;br&gt;" style="edgeLabel;html=1;align=center;verticalAlign=middle;resizable=0;points=[];" parent="1" vertex="1" connectable="0">
          <mxGeometry x="740.0033333333336" y="50" as="geometry" />
        </mxCell>
        <mxCell id="lVgYKHHcY3sC3g97FkwV-33" value="provides username and password&lt;br&gt;" style="edgeLabel;html=1;align=center;verticalAlign=middle;resizable=0;points=[];" parent="1" vertex="1" connectable="0">
          <mxGeometry x="90.00005604045054" y="260.00031282055517" as="geometry" />
        </mxCell>
        <mxCell id="lVgYKHHcY3sC3g97FkwV-34" value="checks email&amp;nbsp;and passwrod" style="text;html=1;align=center;verticalAlign=middle;resizable=0;points=[];autosize=1;strokeColor=none;fillColor=none;" parent="1" vertex="1">
          <mxGeometry x="650" width="170" height="30" as="geometry" />
        </mxCell>
        <mxCell id="lVgYKHHcY3sC3g97FkwV-35" value="return correct email&amp;nbsp;and passwrod&amp;nbsp;&lt;br&gt;or not&lt;br&gt;" style="text;html=1;align=center;verticalAlign=middle;resizable=0;points=[];autosize=1;strokeColor=none;fillColor=none;" parent="1" vertex="1">
          <mxGeometry x="620" y="-70" width="210" height="40" as="geometry" />
        </mxCell>
        <mxCell id="lVgYKHHcY3sC3g97FkwV-57" style="edgeStyle=orthogonalEdgeStyle;rounded=0;orthogonalLoop=1;jettySize=auto;html=1;entryX=0.5;entryY=1;entryDx=0;entryDy=0;" parent="1" source="lVgYKHHcY3sC3g97FkwV-38" target="lVgYKHHcY3sC3g97FkwV-46" edge="1">
          <mxGeometry relative="1" as="geometry" />
        </mxCell>
        <mxCell id="lVgYKHHcY3sC3g97FkwV-58" value="Stores Post Content" style="edgeLabel;html=1;align=center;verticalAlign=middle;resizable=0;points=[];" parent="lVgYKHHcY3sC3g97FkwV-57" vertex="1" connectable="0">
          <mxGeometry x="-0.4116" y="-3" relative="1" as="geometry">
            <mxPoint x="216" y="-23" as="offset" />
          </mxGeometry>
        </mxCell>
        <mxCell id="lVgYKHHcY3sC3g97FkwV-38" value="4&lt;div&gt;test-posting.php&lt;div style=&quot;border-color: var(--border-color);&quot;&gt;&lt;br style=&quot;border-color: var(--border-color);&quot;&gt;&lt;/div&gt;&lt;/div&gt;" style="ellipse;whiteSpace=wrap;html=1;aspect=fixed;" parent="1" vertex="1">
          <mxGeometry x="346" y="400" width="80" height="80" as="geometry" />
        </mxCell>
        <mxCell id="lVgYKHHcY3sC3g97FkwV-44" value="Provides user id" style="text;html=1;align=center;verticalAlign=middle;resizable=0;points=[];autosize=1;strokeColor=none;fillColor=none;" parent="1" vertex="1">
          <mxGeometry x="221" y="295" width="110" height="30" as="geometry" />
        </mxCell>
        <mxCell id="lVgYKHHcY3sC3g97FkwV-45" value="displays post content" style="text;html=1;align=center;verticalAlign=middle;resizable=0;points=[];autosize=1;strokeColor=none;fillColor=none;" parent="1" vertex="1">
          <mxGeometry x="204" y="345" width="140" height="30" as="geometry" />
        </mxCell>
        <mxCell id="lVgYKHHcY3sC3g97FkwV-49" style="edgeStyle=orthogonalEdgeStyle;rounded=0;orthogonalLoop=1;jettySize=auto;html=1;exitX=0;exitY=0.75;exitDx=0;exitDy=0;entryX=1;entryY=0;entryDx=0;entryDy=0;" parent="1" source="lVgYKHHcY3sC3g97FkwV-46" target="lVgYKHHcY3sC3g97FkwV-5" edge="1">
          <mxGeometry relative="1" as="geometry">
            <Array as="points">
              <mxPoint x="920" y="322" />
            </Array>
          </mxGeometry>
        </mxCell>
        <mxCell id="lVgYKHHcY3sC3g97FkwV-53" value="Retrives needed posts contnent" style="edgeLabel;html=1;align=center;verticalAlign=middle;resizable=0;points=[];" parent="lVgYKHHcY3sC3g97FkwV-49" vertex="1" connectable="0">
          <mxGeometry x="0.3119" relative="1" as="geometry">
            <mxPoint x="-1" y="11" as="offset" />
          </mxGeometry>
        </mxCell>
        <mxCell id="lVgYKHHcY3sC3g97FkwV-46" value="MYSQL&lt;br&gt;Posts&lt;br&gt;Table" style="html=1;dashed=0;whiteSpace=wrap;shape=partialRectangle;right=0;left=0;" parent="1" vertex="1">
          <mxGeometry x="870" y="290" width="100" height="40" as="geometry" />
        </mxCell>
        <mxCell id="lVgYKHHcY3sC3g97FkwV-52" value="Requests posts" style="text;html=1;align=center;verticalAlign=middle;resizable=0;points=[];autosize=1;strokeColor=none;fillColor=none;" parent="1" vertex="1">
          <mxGeometry x="550" y="288" width="110" height="30" as="geometry" />
        </mxCell>
        <mxCell id="lVgYKHHcY3sC3g97FkwV-56" value="Provides post content" style="text;html=1;align=center;verticalAlign=middle;resizable=0;points=[];autosize=1;strokeColor=none;fillColor=none;" parent="1" vertex="1">
          <mxGeometry x="205" y="410" width="140" height="30" as="geometry" />
        </mxCell>
        <mxCell id="lVgYKHHcY3sC3g97FkwV-69" value="Comment &lt;br&gt;on posts" style="text;html=1;align=center;verticalAlign=middle;resizable=0;points=[];autosize=1;strokeColor=none;fillColor=none;" parent="1" vertex="1">
          <mxGeometry x="245" y="660" width="80" height="40" as="geometry" />
        </mxCell>
        <mxCell id="lVgYKHHcY3sC3g97FkwV-71" value="MySQL&lt;br&gt;Comments&lt;br&gt;Table" style="html=1;dashed=0;whiteSpace=wrap;shape=partialRectangle;right=0;left=0;" parent="1" vertex="1">
          <mxGeometry x="910" y="689" width="100" height="40" as="geometry" />
        </mxCell>
        <mxCell id="lVgYKHHcY3sC3g97FkwV-77" value="Follow users" style="text;html=1;align=center;verticalAlign=middle;resizable=0;points=[];autosize=1;strokeColor=none;fillColor=none;" parent="1" vertex="1">
          <mxGeometry x="254" y="708" width="90" height="30" as="geometry" />
        </mxCell>
        <mxCell id="lVgYKHHcY3sC3g97FkwV-78" value="MySQL&lt;br&gt;Followers&lt;br&gt;Table" style="html=1;dashed=0;whiteSpace=wrap;shape=partialRectangle;right=0;left=0;" parent="1" vertex="1">
          <mxGeometry x="910" y="789" width="100" height="40" as="geometry" />
        </mxCell>
        <mxCell id="lVgYKHHcY3sC3g97FkwV-87" style="edgeStyle=orthogonalEdgeStyle;rounded=0;orthogonalLoop=1;jettySize=auto;html=1;entryX=0.15;entryY=1.094;entryDx=0;entryDy=0;entryPerimeter=0;" parent="1" source="lVgYKHHcY3sC3g97FkwV-84" target="lVgYKHHcY3sC3g97FkwV-46" edge="1">
          <mxGeometry relative="1" as="geometry">
            <Array as="points">
              <mxPoint x="880" y="530" />
              <mxPoint x="880" y="334" />
            </Array>
          </mxGeometry>
        </mxCell>
        <mxCell id="lVgYKHHcY3sC3g97FkwV-92" value="Update or deletes&lt;br&gt;post" style="edgeLabel;html=1;align=center;verticalAlign=middle;resizable=0;points=[];" parent="lVgYKHHcY3sC3g97FkwV-87" vertex="1" connectable="0">
          <mxGeometry x="0.927" y="-2" relative="1" as="geometry">
            <mxPoint x="-52" y="-1" as="offset" />
          </mxGeometry>
        </mxCell>
        <mxCell id="lVgYKHHcY3sC3g97FkwV-84" value="&lt;div&gt;5&lt;/div&gt;&lt;div&gt;test-display-post.php&lt;div style=&quot;border-color: var(--border-color);&quot;&gt;&lt;br&gt;&lt;/div&gt;&lt;/div&gt;" style="ellipse;whiteSpace=wrap;html=1;aspect=fixed;" parent="1" vertex="1">
          <mxGeometry x="346" y="490" width="80" height="80" as="geometry" />
        </mxCell>
        <mxCell id="lVgYKHHcY3sC3g97FkwV-96" value="Updates Account Contents" style="text;html=1;align=center;verticalAlign=middle;resizable=0;points=[];autosize=1;strokeColor=none;fillColor=none;" parent="1" vertex="1">
          <mxGeometry x="150" y="820" width="170" height="30" as="geometry" />
        </mxCell>
        <mxCell id="lVgYKHHcY3sC3g97FkwV-98" value="" style="endArrow=classic;html=1;rounded=0;entryX=1;entryY=0.5;entryDx=0;entryDy=0;exitX=1;exitY=0.5;exitDx=0;exitDy=0;" parent="1" source="lVgYKHHcY3sC3g97FkwV-9" target="lVgYKHHcY3sC3g97FkwV-14" edge="1">
          <mxGeometry width="50" height="50" relative="1" as="geometry">
            <mxPoint x="1040" y="907.0588235294117" as="sourcePoint" />
            <mxPoint x="980" y="80" as="targetPoint" />
            <Array as="points">
              <mxPoint x="480" y="840" />
              <mxPoint x="1040" y="840" />
              <mxPoint x="1040" y="60" />
            </Array>
          </mxGeometry>
        </mxCell>
        <mxCell id="lVgYKHHcY3sC3g97FkwV-99" value="Updates Account &lt;br&gt;Information" style="text;html=1;align=center;verticalAlign=middle;resizable=0;points=[];autosize=1;strokeColor=none;fillColor=none;" parent="1" vertex="1">
          <mxGeometry x="1033" y="80" width="110" height="40" as="geometry" />
        </mxCell>
        <mxCell id="lVgYKHHcY3sC3g97FkwV-106" style="edgeStyle=orthogonalEdgeStyle;rounded=0;orthogonalLoop=1;jettySize=auto;html=1;" parent="1" source="lVgYKHHcY3sC3g97FkwV-100" target="lVgYKHHcY3sC3g97FkwV-10" edge="1">
          <mxGeometry relative="1" as="geometry">
            <Array as="points">
              <mxPoint x="550" y="1000" />
              <mxPoint x="550" y="1000" />
            </Array>
          </mxGeometry>
        </mxCell>
        <mxCell id="lVgYKHHcY3sC3g97FkwV-100" value="MySQL&lt;br&gt;Messages&lt;br&gt;Table" style="html=1;dashed=0;whiteSpace=wrap;shape=partialRectangle;right=0;left=0;" parent="1" vertex="1">
          <mxGeometry x="920" y="980" width="100" height="40" as="geometry" />
        </mxCell>
        <mxCell id="lVgYKHHcY3sC3g97FkwV-103" value="Sends Messeges" style="text;html=1;align=center;verticalAlign=middle;resizable=0;points=[];autosize=1;strokeColor=none;fillColor=none;" parent="1" vertex="1">
          <mxGeometry x="225" y="961" width="120" height="30" as="geometry" />
        </mxCell>
        <mxCell id="lVgYKHHcY3sC3g97FkwV-105" value="Stores messeges" style="text;html=1;align=center;verticalAlign=middle;resizable=0;points=[];autosize=1;strokeColor=none;fillColor=none;" parent="1" vertex="1">
          <mxGeometry x="590" y="961" width="120" height="30" as="geometry" />
        </mxCell>
        <mxCell id="lVgYKHHcY3sC3g97FkwV-107" value="Returns alll recived messages" style="text;html=1;align=center;verticalAlign=middle;resizable=0;points=[];autosize=1;strokeColor=none;fillColor=none;" parent="1" vertex="1">
          <mxGeometry x="560" y="999" width="180" height="30" as="geometry" />
        </mxCell>
        <mxCell id="lVgYKHHcY3sC3g97FkwV-110" value="Displays all Recived&lt;br&gt;Messages" style="text;html=1;align=center;verticalAlign=middle;resizable=0;points=[];autosize=1;strokeColor=none;fillColor=none;" parent="1" vertex="1">
          <mxGeometry x="-290" y="775" width="130" height="40" as="geometry" />
        </mxCell>
        <mxCell id="TnAPFE_Qto44UNZe6oUe-5" value="" style="endArrow=classic;html=1;rounded=0;entryX=1.013;entryY=0.194;entryDx=0;entryDy=0;entryPerimeter=0;exitX=0.029;exitY=0.417;exitDx=0;exitDy=0;exitPerimeter=0;" parent="1" source="lVgYKHHcY3sC3g97FkwV-5" target="lVgYKHHcY3sC3g97FkwV-1" edge="1">
          <mxGeometry width="50" height="50" relative="1" as="geometry">
            <mxPoint x="180" y="400" as="sourcePoint" />
            <mxPoint x="230" y="350" as="targetPoint" />
            <Array as="points">
              <mxPoint x="160" y="343" />
              <mxPoint x="160" y="400" />
            </Array>
          </mxGeometry>
        </mxCell>
        <mxCell id="TnAPFE_Qto44UNZe6oUe-6" value="" style="endArrow=classic;html=1;rounded=0;entryX=1;entryY=0.167;entryDx=0;entryDy=0;entryPerimeter=0;exitX=0;exitY=0.5;exitDx=0;exitDy=0;" parent="1" source="lVgYKHHcY3sC3g97FkwV-5" target="lVgYKHHcY3sC3g97FkwV-11" edge="1">
          <mxGeometry width="50" height="50" relative="1" as="geometry">
            <mxPoint x="150" y="420" as="sourcePoint" />
            <mxPoint x="200" y="370" as="targetPoint" />
            <Array as="points">
              <mxPoint x="170" y="350" />
              <mxPoint x="170" y="610" />
            </Array>
          </mxGeometry>
        </mxCell>
        <mxCell id="TnAPFE_Qto44UNZe6oUe-7" style="edgeStyle=orthogonalEdgeStyle;rounded=0;orthogonalLoop=1;jettySize=auto;html=1;exitX=1;exitY=0.5;exitDx=0;exitDy=0;entryX=0.193;entryY=0.132;entryDx=0;entryDy=0;entryPerimeter=0;" parent="1" target="lVgYKHHcY3sC3g97FkwV-38" edge="1">
          <mxGeometry relative="1" as="geometry">
            <mxPoint x="-30" y="410" as="sourcePoint" />
            <mxPoint x="353.44000000000005" y="410.39999999999986" as="targetPoint" />
            <Array as="points">
              <mxPoint x="350" y="410" />
            </Array>
          </mxGeometry>
        </mxCell>
        <mxCell id="TnAPFE_Qto44UNZe6oUe-8" style="edgeStyle=orthogonalEdgeStyle;rounded=0;orthogonalLoop=1;jettySize=auto;html=1;entryX=0.037;entryY=0.251;entryDx=0;entryDy=0;entryPerimeter=0;" parent="1" source="lVgYKHHcY3sC3g97FkwV-11" target="lVgYKHHcY3sC3g97FkwV-38" edge="1">
          <mxGeometry relative="1" as="geometry">
            <Array as="points">
              <mxPoint x="180" y="620" />
              <mxPoint x="180" y="420" />
            </Array>
          </mxGeometry>
        </mxCell>
        <mxCell id="TnAPFE_Qto44UNZe6oUe-11" style="edgeStyle=orthogonalEdgeStyle;rounded=0;orthogonalLoop=1;jettySize=auto;html=1;exitX=1;exitY=0.75;exitDx=0;exitDy=0;entryX=0;entryY=0.5;entryDx=0;entryDy=0;" parent="1" edge="1" target="lVgYKHHcY3sC3g97FkwV-84">
          <mxGeometry relative="1" as="geometry">
            <mxPoint x="-30" y="634.8400000000003" as="sourcePoint" />
            <mxPoint x="349.68000000000006" y="630.0000000000003" as="targetPoint" />
            <Array as="points">
              <mxPoint x="-30" y="640" />
              <mxPoint x="320" y="640" />
              <mxPoint x="320" y="530" />
            </Array>
          </mxGeometry>
        </mxCell>
        <mxCell id="TnAPFE_Qto44UNZe6oUe-15" style="edgeStyle=orthogonalEdgeStyle;rounded=0;orthogonalLoop=1;jettySize=auto;html=1;exitX=1;exitY=0.75;exitDx=0;exitDy=0;entryX=0;entryY=0.5;entryDx=0;entryDy=0;" parent="1" source="lVgYKHHcY3sC3g97FkwV-11" target="lVgYKHHcY3sC3g97FkwV-7" edge="1">
          <mxGeometry relative="1" as="geometry">
            <Array as="points">
              <mxPoint x="210" y="645" />
              <mxPoint x="210" y="710" />
              <mxPoint x="346" y="710" />
            </Array>
          </mxGeometry>
        </mxCell>
        <mxCell id="TnAPFE_Qto44UNZe6oUe-17" style="edgeStyle=orthogonalEdgeStyle;rounded=0;orthogonalLoop=1;jettySize=auto;html=1;entryX=0.013;entryY=0.609;entryDx=0;entryDy=0;entryPerimeter=0;" parent="1" source="lVgYKHHcY3sC3g97FkwV-11" target="lVgYKHHcY3sC3g97FkwV-10" edge="1">
          <mxGeometry relative="1" as="geometry">
            <Array as="points">
              <mxPoint x="-80" y="998" />
            </Array>
          </mxGeometry>
        </mxCell>
        <mxCell id="TnAPFE_Qto44UNZe6oUe-19" style="edgeStyle=orthogonalEdgeStyle;rounded=0;orthogonalLoop=1;jettySize=auto;html=1;exitX=0;exitY=1;exitDx=0;exitDy=0;entryX=0.25;entryY=1;entryDx=0;entryDy=0;" parent="1" source="lVgYKHHcY3sC3g97FkwV-10" target="lVgYKHHcY3sC3g97FkwV-11" edge="1">
          <mxGeometry relative="1" as="geometry" />
        </mxCell>
        <mxCell id="TnAPFE_Qto44UNZe6oUe-21" style="edgeStyle=orthogonalEdgeStyle;rounded=0;orthogonalLoop=1;jettySize=auto;html=1;exitX=0.75;exitY=1;exitDx=0;exitDy=0;entryX=0.004;entryY=0.593;entryDx=0;entryDy=0;entryPerimeter=0;" parent="1" source="lVgYKHHcY3sC3g97FkwV-11" target="lVgYKHHcY3sC3g97FkwV-9" edge="1">
          <mxGeometry relative="1" as="geometry" />
        </mxCell>
        <mxCell id="TnAPFE_Qto44UNZe6oUe-22" style="edgeStyle=orthogonalEdgeStyle;rounded=0;orthogonalLoop=1;jettySize=auto;html=1;exitX=1;exitY=1;exitDx=0;exitDy=0;entryX=0.025;entryY=0.754;entryDx=0;entryDy=0;entryPerimeter=0;" parent="1" source="lVgYKHHcY3sC3g97FkwV-11" target="lVgYKHHcY3sC3g97FkwV-8" edge="1">
          <mxGeometry relative="1" as="geometry">
            <Array as="points">
              <mxPoint x="-30" y="740" />
              <mxPoint x="348" y="740" />
            </Array>
          </mxGeometry>
        </mxCell>
        <mxCell id="CSQUxUXz5eu-vYHftbsT-1" value="manages &lt;br&gt;posts" style="text;html=1;align=center;verticalAlign=middle;resizable=0;points=[];autosize=1;strokeColor=none;fillColor=none;" vertex="1" parent="1">
          <mxGeometry x="250" y="600" width="70" height="40" as="geometry" />
        </mxCell>
      </root>
    </mxGraphModel>
  </diagram>
</mxfile>
